inDegrees=no
num_controls=7
num_derivatives=13
num_iterations=69
num_multipliers=7
num_parameters=0
num_slacks=7
num_states=26
objective=0.448755
objective_accelerations=0.053277
objective_balance=0.006390
objective_effort=0.035735
objective_height=0.348973
objective_ligament=0.004380
solver_duration=1020.938000
status=Solve_Succeeded
success=true
DataType=double
version=3
OpenSimVersion=4.5
endheader
time	/jointset/ground_pelvis/pelvis_tilt/value	/jointset/ground_pelvis/pelvis_tx/value	/jointset/ground_pelvis/pelvis_ty/value	/jointset/hip_l/hip_flexion_l/value	/jointset/hip_l/hip_adduction_l/value	/jointset/hip_l/hip_rotation_l/value	/jointset/back/lumbar_extension/value	/jointset/patellofemoral_l/patellar_flexion_l/value	/jointset/knee_l/knee_flexion_l/value	/jointset/knee_l/knee_adduction_l/value	/jointset/knee_l/knee_rotation_l/value	/jointset/ankle_l/ankle_angle_l/value	/jointset/subtalar_l/subtalar_angle_l/value	/jointset/ground_pelvis/pelvis_tilt/speed	/jointset/ground_pelvis/pelvis_tx/speed	/jointset/ground_pelvis/pelvis_ty/speed	/jointset/hip_l/hip_flexion_l/speed	/jointset/hip_l/hip_adduction_l/speed	/jointset/hip_l/hip_rotation_l/speed	/jointset/back/lumbar_extension/speed	/jointset/patellofemoral_l/patellar_flexion_l/speed	/jointset/knee_l/knee_flexion_l/speed	/jointset/knee_l/knee_adduction_l/speed	/jointset/knee_l/knee_rotation_l/speed	/jointset/ankle_l/ankle_angle_l/speed	/jointset/subtalar_l/subtalar_angle_l/speed	/forceset/tau_hip_flexion_l	/forceset/tau_hip_adduction_l	/forceset/tau_hip_rotation_l	/forceset/tau_knee_flexion_l	/forceset/tau_ankle_angle_l	/forceset/tau_subtalar_angle_l	/forceset/tau_lumbar_extension	lambda_cid13_p0	lambda_cid13_p1	lambda_cid13_p2	lambda_cid13_p3	lambda_cid13_p4	lambda_cid13_p5	lambda_cid14_p0	/jointset/ground_pelvis/pelvis_tilt/accel	/jointset/ground_pelvis/pelvis_tx/accel	/jointset/ground_pelvis/pelvis_ty/accel	/jointset/hip_l/hip_flexion_l/accel	/jointset/hip_l/hip_adduction_l/accel	/jointset/hip_l/hip_rotation_l/accel	/jointset/back/lumbar_extension/accel	/jointset/patellofemoral_l/patellar_flexion_l/accel	/jointset/knee_l/knee_flexion_l/accel	/jointset/knee_l/knee_adduction_l/accel	/jointset/knee_l/knee_rotation_l/accel	/jointset/ankle_l/ankle_angle_l/accel	/jointset/subtalar_l/subtalar_angle_l/accel	gamma_cid13_p0	gamma_cid13_p1	gamma_cid13_p2	gamma_cid13_p3	gamma_cid13_p4	gamma_cid13_p5	gamma_cid14_p0
1.5	-0.4189972287596923	-0.05677558133002221	0.7601986537562687	1.255252321196052	-0.3071564461851023	-0.01679363629125222	-0.3394830330863184	0.7542833388794945	0.7542833388798235	-0.1720188611899807	0.1695713190446146	0.09184722227258801	-0.03606923339351852	0.6559594592287099	0.2198648678039128	0.510573707000242	-2.324409895628825	0.01181548736006612	-0.6522851926900205	0.5721079937268304	-1.929907336926175	-1.929907336926176	0.006745913269928573	-0.02648531817333511	-0.3684772706637465	-0.03934519939842022	-0.2334606056694401	0.06302171992018266	-0.02258822257822691	-0.2178161483114344	0.1230165777152135	0.002020019450798007	0.2145722682944148	0.06840700978287009	-2.789478302199412	2.212792647318323	-3.605217087970791	-606.3940993663491	-21.30061934808909	-24.34762349435575	0.6153833113072102	0.6237957620909804	-0.3741118549034436	-1.413721267897573	0.632441158071277	-0.3039687835584736	1.63984927399793	-1.162926214975079	-1.162926214975123	0.03327933592635218	-0.04182068489839359	-0.3407917202275244	0.6072706244317675	3.731120860637738e-07	7.298981428106813e-07	-2.007325862465851e-06	-1.794292723197501e-07	4.566241418104913e-07	9.145360293367991e-08	3.751734805875211e-07
1.51	-0.4124071543122721	-0.05454591719434315	0.7652847206931017	1.231939542039523	-0.3070081207661277	-0.02332918602962892	-0.3336814981375613	0.7349280760903703	0.7349280760904221	-0.171953816037714	0.169304475714517	0.08814549580207569	-0.0364340123306709	0.6619596505945463	0.2260428069748298	0.506536536832268	-2.337818986154394	0.01785952381980704	-0.6547370560997458	0.5881149481304776	-1.940867863983952	-1.940867863983959	0.006253284438294848	-0.02688282138083852	-0.371795794591495	-0.03359971288512752	-0.2256459026074778	0.06254718134765694	-0.02248715680263955	-0.2163155686374403	0.1244165655475919	0.00119537070941284	0.2084208247891407	0.7398293314346708	-2.688480579567345	2.356130979478057	-3.786665016406063	-601.8888218469979	-21.41549094355216	-25.49445229814771	0.5780166783146976	0.610974716646799	-0.4338821331791772	-1.255401007826697	0.592114288904269	-0.2022442240565398	1.568511339440872	-1.021098807861194	-1.021098807861863	-0.09198602226305767	-0.03815126625990999	-0.3165507815034536	0.5599676902314263	4.226249497041609e-07	7.740924572088948e-07	-2.237947744094345e-06	-2.109058549319213e-07	5.149348272571454e-07	1.385074959791597e-07	4.126584161644397e-07
1.52	-0.405759942025381	-0.05225523732254393	0.7703273434211677	1.208502492365151	-0.3067990091027651	-0.02988654422295669	-0.3277224150815882	0.7154715114593491	0.7154715114590912	-0.1718939875797002	0.1690337701267962	0.08441275048179474	-0.03674098039759966	0.6673870271241001	0.2320680150279424	0.5018848652468981	-2.349263999197573	0.02397273623869052	-0.6566468836845445	0.6036176151698385	-1.95016770530901	-1.950167705309021	0.00570257442447536	-0.0272577696916825	-0.3746810406174393	-0.02778302535369426	-0.2178311995454583	0.06207264277518821	-0.02238609102750085	-0.2148149889633725	0.1258165533799935	0.0003707219681056223	0.2022693812839069	1.408192991809991	-2.591888443392645	2.505817065487176	-3.993731925172451	-597.4450760203804	-21.62307785263534	-26.63659346951413	0.5008203440508078	0.5932495385300345	-0.4970121383826251	-1.020905771419929	0.6462763498998217	-0.1955616185731755	1.538991801140724	-0.8307890684310253	-0.8307890684310069	0.02166309948918898	-0.03730970556647619	-0.2541361398667673	0.6215108280598569	4.421685358667357e-07	8.593562281685745e-07	-2.318145095193844e-06	-2.116118170607452e-07	5.457052157134932e-07	1.969760051028211e-07	4.319317206147196e-07
1.53	-0.3990612822505078	-0.04990514498534701	0.7753204271497176	1.184960800838452	-0.3065285494241028	-0.03646055373624854	-0.3216110291990795	0.6959303416351579	0.6959303416351538	-0.1718399134089677	0.1687596162541354	0.08065331776745731	-0.03698955487983616	0.6722456789148992	0.2379162683713169	0.4966335665047914	-2.358736006704718	0.03012066140053258	-0.6580469941254817	0.6185603120912648	-1.957782345562493	-1.957782345562497	0.005088620477223277	-0.02758654316272305	-0.3771334594342308	-0.0219300809595424	-0.2100181927544089	0.06139141662018038	-0.02223314455140112	-0.2133454913060794	0.1270782711894753	-0.0005999742441164933	0.1960681006114996	2.018424667457604	-2.421068530229304	2.64295868712688	-4.075469838962972	-593.0993705102568	-21.73672566429129	-27.77357363139006	0.4635464343056052	0.5754531261918072	-0.5538262315708341	-0.8595447028480407	0.5994550417169847	-0.09562574794393032	1.457021251575047	-0.6843007713565581	-0.6843007713554548	-0.1064065268535674	-0.03223196589134514	-0.2299842748732757	0.5675436659950368	4.298697647091353e-07	9.882562967248116e-07	-2.238516382606286e-06	-1.796239949260129e-07	5.472140386176412e-07	2.675725438095505e-07	4.318551669929465e-07
1.54	-0.3923170041901832	-0.04749760213592606	0.7802580703929569	1.161334549944187	-0.3061965296053386	-0.04304524235218692	-0.3153531938245708	0.6763215255549153	0.6763215255551771	-0.1717926751546802	0.168481860487191	0.07687152296049406	-0.0371795284339507	0.6765106842141617	0.243558117472752	0.4907967681848222	-2.366175872711304	0.03628476425800897	-0.6587827042100237	0.6329075135699523	-1.963696956517961	-1.963696956517958	0.004335391129120461	-0.02797814855450852	-0.3791534591425396	-0.01606283972930219	-0.2022051859633805	0.06071019046512839	-0.02208019807492212	-0.2118759936488579	0.1283399889989288	-0.001570670456402613	0.1898668199390891	2.623959961547468	-2.25426261140257	2.786265720400608	-4.173987907328668	-588.8360756838913	-21.94460552252978	-28.89554220998763	0.3820910457435782	0.551968690142088	-0.6141120539551497	-0.6144774713084468	0.6495118890266719	-0.0626815472941072	1.419892712592972	-0.4907832088278158	-0.4907832088278155	-0.00619198068094661	-0.04987608971544087	-0.1676523181702991	0.6243701952775184	3.533274701491504e-07	1.215180733112197e-06	-1.848070324146736e-06	-9.331955823266677e-08	4.992258693529876e-07	3.369518514876209e-07	3.938228328892599e-07
1.55	-0.3855331473826312	-0.04503472062403116	0.7851344746385863	1.137644299373711	-0.3058024793986983	-0.0496361412113427	-0.3089549365001376	0.6566625678157495	0.6566625678160406	-0.1717517808606594	0.1682013974397447	0.07307193230296422	-0.03731036590602468	0.6801555603198339	0.2489785694761578	0.4843933016005477	-2.371530415323987	0.04251679512142949	-0.6592802067733313	0.6466302928383031	-1.967807556251569	-1.967807556251581	0.00380599947102293	-0.0281284997770452	-0.3806902801437983	-0.01011265694845167	-0.1942879438595898	0.05974354356442069	-0.02196589935246074	-0.2106729045004234	0.1299727508215613	-0.002690780386333719	0.1835715410574385	3.33280816939302	-2.040754797561139	2.922239695758931	-4.320594334615261	-584.7444158152069	-22.10557559690674	-29.99211218790983	0.3399364217885422	0.5311687971539033	-0.6670136886689776	-0.4443451428111411	0.6086684065739553	-0.02546743913041158	1.331421762197777	-0.3281964231254876	-0.3281964231276702	-0.0816760776267146	0.0004752100740746468	-0.1355156637378566	0.5789472381233141	2.02765463842944e-07	1.555046288957203e-06	-1.099508628052084e-06	5.556706479994832e-08	3.942085569373269e-07	4.049286973283234e-07	3.120588386651102e-07
1.56	-0.3787159917082669	-0.04251881752375933	0.7899441342727719	1.113910822879796	-0.3053463849391147	-0.05622845166176953	-0.3024228611373717	0.6369711044657689	0.6369711044660487	-0.1717172531471151	0.1679190488497493	0.06925920970089471	-0.03738198056656324	0.6831704575778882	0.2541624351481376	0.4774478458960582	-2.374821057399189	0.04869361484781267	-0.6590650224678858	0.6596711212363231	-1.970198078685101	-1.970198078685128	0.003062075042829291	-0.02835525705570456	-0.3817798480504235	-0.004218277422217069	-0.1863707017557405	0.0587768966637626	-0.02185160063044363	-0.2094698153519093	0.1316055126442167	-0.003810890316196924	0.1772762621758276	4.033466289193568	-1.828693397840926	3.061734662920391	-4.454354857030643	-580.7744543924347	-22.33278879293384	-31.05798420735008	0.2560952762201033	0.5046514238568188	-0.7225098779981866	-0.2016973638122883	0.6384696616192406	0.07985582645648286	1.283502538526889	-0.1467677488125209	-0.1467677488125337	-0.04909853470016995	-0.06515730093994197	-0.07820169924365358	0.6132095443543208	1.130896678235926e-07	1.762822000467161e-06	-6.682831591466773e-07	1.435235686348879e-07	3.355270200112829e-07	4.538342973019395e-07	2.648256809246885e-07
1.57	-0.3718718632157751	-0.03995235844267733	0.7946816866998125	1.090154909117821	-0.3048287366972537	-0.06281553377926712	-0.2957639067938729	0.6172645292278252	0.6172645292280501	-0.171690755300401	0.1676343313625604	0.06543786726265985	-0.03739484076501617	0.6855455531334372	0.2590791421229393	0.4699776806781336	-2.375997192712065	0.0548309785208184	-0.658264086026385	0.671994144832271	-1.97080990706511	-1.9708099070651	0.002238635909388153	-0.02858203586089186	-0.3824109190755404	0.001643283953531652	-0.1785697861942287	0.05770343043431059	-0.02175696001461161	-0.2081000464217362	0.1329498984630441	-0.005000687975449335	0.1710223402488116	4.628725984839996	-1.567505930648309	3.192933386344431	-4.456640776755952	-576.9388576100315	-22.48853661867976	-32.08772758386266	0.2117783360026887	0.4776769139062051	-0.7719468035130559	-0.0208762591117626	0.6004785013723506	0.09359158183776391	1.187861875464139	0.02761721077040603	0.02761721077600788	-0.09852420741833552	-0.0003208245813502565	-0.04388006269579831	0.5719702761120395	9.952163466280903e-08	1.805485406558312e-06	-6.337279742278223e-07	1.553174234727338e-07	3.347652024472595e-07	4.789008399416979e-07	2.607560687889264e-07
1.58	-0.3650072714395736	-0.03733823297592428	0.799342002082709	1.066398173073901	-0.3042498930624165	-0.06939193072658471	-0.2889854902933476	0.5975610372247542	0.5975610372249243	-0.1716724033659596	0.1673475695564755	0.06161255006246352	-0.03734921718132622	0.687263114320212	0.2636957122823451	0.4620004370672625	-2.37498551378839	0.06093269344307492	-0.6569279884312519	0.6835635526416372	-1.9695814317105	-1.969581431710453	0.001432892585855768	-0.02876412083701111	-0.3825748004426602	0.007478479006358223	-0.1707688706327125	0.05662996420484714	-0.02166231939867738	-0.2067302774915844	0.1342942842818615	-0.0061904856347179	0.1647684183218052	5.21457736906849	-1.307110012554055	3.32704431639714	-4.440465638843931	-573.2414911078522	-22.70937641326934	-33.07603028333894	0.124588402465335	0.444624060777607	-0.8239255565875024	0.235865483498053	0.631339911469403	0.1868880571829354	1.132779381210511	0.2212929981112431	0.2212929981112286	-0.04555937271841327	-0.05621853512630831	0.0152362323557154	0.607936279769886	8.340610944277297e-08	1.857904008537186e-06	-5.920245002920394e-07	1.687385297235219e-07	3.319185952808106e-07	5.040594243168121e-07	2.561959201875302e-07
1.59	-0.3581288496593345	-0.03467947164057743	0.8039201101082082	1.042662471159734	-0.303610276646996	-0.07595246173811226	-0.2820952748459215	0.5778790340050416	0.5778790340050892	-0.1716620068828292	0.1670593317892606	0.05778796674550803	-0.03724541676670481	0.688305011632795	0.2680030270466214	0.4535461690744961	-2.37178875415924	0.06697547876881826	-0.6550807568090821	0.694341005001559	-1.966513267011484	-1.966513267011483	0.0006372184676147384	-0.02888338402699999	-0.3822616260122322	0.0132697288735873	-0.1628706697148029	0.05527311092545083	-0.02165673371029399	-0.2057414711797735	0.1362478299833202	-0.007537565493151059	0.1584525572544737	5.975101843374277	-1.009073807198271	3.455249394485361	-4.557250508815502	-569.8181451012302	-22.90534007918307	-34.01759596177646	0.07656544417436405	0.4157947595704267	-0.867362692380457	0.416512595000156	0.5883127103339949	0.1985344231870288	1.0294483870851	0.3954204179745212	0.3954204179675979	-0.09765297308128806	0.01040089203131358	0.05141446303574217	0.5626895057128176	6.383327357089438e-08	1.92356180493511e-06	-5.406197769761407e-07	1.843680486061601e-07	3.262426307967845e-07	5.293429224756235e-07	2.509700435256308e-07
